ModelForces
version=1
nRows=4
nColumns=157
inDegrees=no

This file contains the forces exerted on a model during a simulation.

A force is a generalized force, meaning that it can be either a force (N) or a torque (Nm).

Units are S.I. units (second, meters, Newtons, ...)
Angles are in degrees.

endheader
time	glut_med1_r	glut_med2_r	glut_med3_r	glut_min1_r	glut_min2_r	glut_min3_r	semimem_r	semiten_r	bifemlh_r	bifemsh_r	sar_r	add_long_r	add_brev_r	add_mag1_r	add_mag2_r	add_mag3_r	tfl_r	pect_r	grac_r	glut_max1_r	glut_max2_r	glut_max3_r	iliacus_r	psoas_r	quad_fem_r	gem_r	peri_r	rect_fem_r	vas_med_r	vas_int_r	vas_lat_r	med_gas_r	lat_gas_r	soleus_r	tib_post_r	flex_dig_r	flex_hal_r	tib_ant_r	per_brev_r	per_long_r	per_tert_r	ext_dig_r	ext_hal_r	glut_med1_l	glut_med2_l	glut_med3_l	glut_min1_l	glut_min2_l	glut_min3_l	semimem_l	semiten_l	bifemlh_l	bifemsh_l	sar_l	add_long_l	add_brev_l	add_mag1_l	add_mag2_l	add_mag3_l	tfl_l	pect_l	grac_l	glut_max1_l	glut_max2_l	glut_max3_l	iliacus_l	psoas_l	quad_fem_l	gem_l	peri_l	rect_fem_l	vas_med_l	vas_int_l	vas_lat_l	med_gas_l	lat_gas_l	soleus_l	tib_post_l	flex_dig_l	flex_hal_l	tib_ant_l	per_brev_l	per_long_l	per_tert_l	ext_dig_l	ext_hal_l	ercspn_r	ercspn_l	intobl_r	intobl_l	extobl_r	extobl_l	femur_lat_meniscii_r.femur_lat_r.force.X	femur_lat_meniscii_r.femur_lat_r.force.Y	femur_lat_meniscii_r.femur_lat_r.force.Z	femur_lat_meniscii_r.femur_lat_r.torque.X	femur_lat_meniscii_r.femur_lat_r.torque.Y	femur_lat_meniscii_r.femur_lat_r.torque.Z	femur_lat_meniscii_r.meniscus_lat_r.force.X	femur_lat_meniscii_r.meniscus_lat_r.force.Y	femur_lat_meniscii_r.meniscus_lat_r.force.Z	femur_lat_meniscii_r.meniscus_lat_r.torque.X	femur_lat_meniscii_r.meniscus_lat_r.torque.Y	femur_lat_meniscii_r.meniscus_lat_r.torque.Z	femur_med_meniscii_r.femur_med_r.force.X	femur_med_meniscii_r.femur_med_r.force.Y	femur_med_meniscii_r.femur_med_r.force.Z	femur_med_meniscii_r.femur_med_r.torque.X	femur_med_meniscii_r.femur_med_r.torque.Y	femur_med_meniscii_r.femur_med_r.torque.Z	femur_med_meniscii_r.meniscus_med_r.force.X	femur_med_meniscii_r.meniscus_med_r.force.Y	femur_med_meniscii_r.meniscus_med_r.force.Z	femur_med_meniscii_r.meniscus_med_r.torque.X	femur_med_meniscii_r.meniscus_med_r.torque.Y	femur_med_meniscii_r.meniscus_med_r.torque.Z	femur_med_tibia_r.tibia_upper_r.force.X	femur_med_tibia_r.tibia_upper_r.force.Y	femur_med_tibia_r.tibia_upper_r.force.Z	femur_med_tibia_r.tibia_upper_r.torque.X	femur_med_tibia_r.tibia_upper_r.torque.Y	femur_med_tibia_r.tibia_upper_r.torque.Z	femur_med_tibia_r.femur_med_r.force.X	femur_med_tibia_r.femur_med_r.force.Y	femur_med_tibia_r.femur_med_r.force.Z	femur_med_tibia_r.femur_med_r.torque.X	femur_med_tibia_r.femur_med_r.torque.Y	femur_med_tibia_r.femur_med_r.torque.Z	femur_lat_tibia_r.tibia_upper_r.force.X	femur_lat_tibia_r.tibia_upper_r.force.Y	femur_lat_tibia_r.tibia_upper_r.force.Z	femur_lat_tibia_r.tibia_upper_r.torque.X	femur_lat_tibia_r.tibia_upper_r.torque.Y	femur_lat_tibia_r.tibia_upper_r.torque.Z	femur_lat_tibia_r.femur_lat_r.force.X	femur_lat_tibia_r.femur_lat_r.force.Y	femur_lat_tibia_r.femur_lat_r.force.Z	femur_lat_tibia_r.femur_lat_r.torque.X	femur_lat_tibia_r.femur_lat_r.torque.Y	femur_lat_tibia_r.femur_lat_r.torque.Z	aACL_R	pACL_R	aPCL_R	pPCL_R	aMCL_R	mMCL_R	pMCL_R	aLCL_R	mLCL_R	pLCL_R	ground_prescribedForce_fx	ground_prescribedForce_fy	ground_prescribedForce_fz	ground_prescribedForce_px	ground_prescribedForce_py	ground_prescribedForce_pz
      0.78602447	      7.54678979	      5.66495315	      6.06384903	      2.65857544	      3.17855674	      3.19225171	      6.77470103	      4.02200505	      7.17341905	      7.08558483	      0.00000000	      5.61247917	      0.00000000	      2.91851463	      2.45337050	      3.98681366	      3.60584241	      2.23840857	      1.53010012	      3.65555825	      5.55521735	      4.14681882	     22.64615397	     12.96522670	      3.62617221	      2.85408244	      4.08919430	     11.31038246	      8.14317779	      8.49708990	     11.07669905	      3.28379831	      2.17396128	      9.94214403	     13.76669700	      3.00774600	      2.48104795	     15.97844319	      4.07414704	      8.49610973	     11.09372354	      8.94756099	      2.32532294	      7.54678979	      5.66495315	      6.06384903	      2.65857544	      3.17855674	      3.19225171	      8.74355771	      4.08261250	      7.68149386	      7.21502124	      1.51953818	      5.61247917	      0.00000000	      2.91851463	      2.45337050	      3.98681366	      4.09662345	      2.23840857	      1.55848832	      3.65555825	      5.55521735	      4.14681882	     22.64615397	     12.96522670	      3.62617221	      2.85408244	      4.08919430	     10.66531742	      6.59173120	      7.56122180	      8.13036261	     13.94949448	      6.47706830	     31.08059095	     42.35696765	      2.54822234	      2.82428385	      8.45040468	      4.33321212	     12.44473664	      2.00563215	      5.37916439	      1.70662651	     25.00319363	     25.00319363	      8.99881951	      8.99881951	     26.80354873	     26.80354873	     35.37726338	     73.42266170	     10.51957062	     -6.18031138	      0.86228232	     14.77403156	    -35.37726338	    -73.42266170	    -10.51957062	      2.19728967	     -0.96409640	     -0.66852532	     39.48341890	     60.01650805	     15.24357789	     -4.98526663	     -0.96231733	     16.58475559	    -39.48341890	    -60.01650805	    -15.24357789	     -0.82523484	      0.82464522	     -0.99254591	      0.00000000	      0.00000000	      0.00000000	      0.00000000	      0.00000000	      0.00000000	      0.00000000	      0.00000000	      0.00000000	      0.00000000	      0.00000000	      0.00000000	      0.00000000	      0.00000000	      0.00000000	      0.00000000	      0.00000000	      0.00000000	      0.00000000	      0.00000000	      0.00000000	      0.00000000	      0.00000000	      0.00000000	     48.84416503	     41.20312199	      0.00000000	      0.00000000	      0.00000000	      3.15700722	      3.17364499	      0.93163353	      0.00000000	      0.00000000	    106.25000000	    -28.47000000	      0.00000000	      0.03000000	     -0.03000000	      0.00000000
      0.78732878	      7.54676866	      5.66493859	      6.06383325	      2.65856890	      3.17854966	      3.19224279	      6.77269412	      4.02183973	      7.17400469	      7.08886680	      0.00000000	      5.61246458	      0.00000000	      2.91850718	      2.45336409	      3.98680212	      3.60649652	      2.23840302	      1.53125560	      3.65554886	      5.55520304	      4.14680794	     22.64612757	     12.96519703	      3.62616309	      2.85407817	      4.08917712	     11.30793435	      8.14498356	      8.49642584	     11.07227497	      3.28785135	      2.17940110	      9.96041936	     13.79818514	      3.01200435	      2.47451680	     15.97786891	      4.06794083	      8.49365798	     11.08649907	      8.97010533	      2.33314935	      7.54676866	      5.66493859	      6.06383325	      2.65856890	      3.17854966	      3.19224279	      8.74352688	      4.08260118	      7.68146823	      7.21500309	      1.51953445	      5.61246458	      0.00000000	      2.91850718	      2.45336409	      3.98680212	      4.09661631	      2.23840302	      1.55848443	      3.65554886	      5.55520304	      4.14680794	     22.64612757	     12.96519703	      3.62616309	      2.85407817	      4.08917712	     10.66528255	      6.59171387	      7.56120154	      8.13034094	     13.94941306	      6.47703042	     31.08046085	     42.35691694	      2.54707928	      2.82378501	      8.45037844	      4.33319636	     12.44469761	      2.00562755	      5.37970739	      1.70677028	     25.00313194	     25.00313194	      8.99879533	      8.99879533	     26.80352701	     26.80352701	     35.32404651	     73.30823193	     10.49602749	     -6.16760556	      0.86092081	     14.75170867	    -35.32404651	    -73.30823193	    -10.49602749	      2.19347482	     -0.96248821	     -0.66751297	     39.48913474	     60.03488400	     15.24604959	     -4.98578293	     -0.96252896	     16.58723612	    -39.48913474	    -60.03488400	    -15.24604959	     -0.82570656	      0.82488352	     -0.99275589	      0.00000000	      0.00000000	      0.00000000	      0.00000000	      0.00000000	      0.00000000	      0.00000000	      0.00000000	      0.00000000	      0.00000000	      0.00000000	      0.00000000	      0.00000000	      0.00000000	      0.00000000	      0.00000000	      0.00000000	      0.00000000	      0.00000000	      0.00000000	      0.00000000	      0.00000000	      0.00000000	      0.00000000	     48.91083870	     41.27723267	      0.00000000	      0.00000000	      0.00000000	      3.22165326	      3.24038063	      0.99892880	      0.00000000	      0.00000000	    106.25000000	    -28.47000000	      0.00000000	      0.03000000	     -0.03000000	      0.00000000
      0.79385034	      7.54666816	      5.66486933	      6.06375820	      2.65853777	      3.17851600	      3.19220037	      6.77317202	      4.02411532	      7.18155792	      7.08415788	      0.00000000	      5.61239516	      0.00000000	      2.91847177	      2.45333361	      3.98674723	      3.60921096	      2.23837665	      1.52895136	      3.65550421	      5.55513498	      4.14675620	     22.64600201	     12.96505588	      3.62611971	      2.85405789	      4.08909545	     11.30811880	      8.16885677	      8.51319937	     11.09577307	      3.30796246	      2.20844154	     10.05808950	     13.96975059	      3.03013169	      2.44987989	     15.96078839	      4.04177733	      8.48177337	     11.05441113	      9.09360982	      2.36419201	      7.54666816	      5.66486933	      6.06375820	      2.65853777	      3.17851600	      3.19220037	      8.74338027	      4.08254733	      7.68134634	      7.21491673	      1.51951674	      5.61239516	      0.00000000	      2.91847177	      2.45333361	      3.98674723	      4.09658238	      2.23837665	      1.55846596	      3.65550421	      5.55513498	      4.14675620	     22.64600201	     12.96505588	      3.62611971	      2.85405789	      4.08909545	     10.66511669	      6.59163145	      7.56110517	      8.13023785	     13.94902571	      6.47685020	     31.07984209	     42.35667576	      2.54132116	      2.82128557	      8.45025369	      4.33312141	     12.44451199	      2.00560565	      5.38243922	      1.70749143	     25.00283855	     25.00283855	      8.99868033	      8.99868033	     26.80342371	     26.80342371	     35.16531435	     72.93663463	     10.41788076	     -6.12536698	      0.85678587	     14.68518640	    -35.16531435	    -72.93663463	    -10.41788076	      2.18070731	     -0.95753742	     -0.66470761	     39.63099209	     60.23448866	     15.29721950	     -5.00250344	     -0.96614429	     16.64696632	    -39.63099209	    -60.23448866	    -15.29721950	     -0.82871460	      0.82820248	     -0.99668358	      0.00000000	      0.00000000	      0.00000000	      0.00000000	      0.00000000	      0.00000000	      0.00000000	      0.00000000	      0.00000000	      0.00000000	      0.00000000	      0.00000000	      0.00000000	      0.00000000	      0.00000000	      0.00000000	      0.00000000	      0.00000000	      0.00000000	      0.00000000	      0.00000000	      0.00000000	      0.00000000	      0.00000000	     48.98396181	     41.38318508	      0.00000000	      0.00000000	      0.00000000	      3.05346508	      3.08684894	      0.71533643	      0.00000000	      0.00000000	    106.25000000	    -28.47000000	      0.00000000	      0.03000000	     -0.03000000	      0.00000000
      0.79490726	      7.54665265	      5.66485864	      6.06374662	      2.65853297	      3.17851080	      3.19219382	      6.77168899	      4.02365119	      7.18156529	      7.08228698	      0.38831202	      5.61238445	      0.00000000	      2.91846630	      2.45332891	      3.98673876	      3.60899364	      2.23837258	      1.53039347	      3.65549732	      5.55512448	      4.14674822	     22.64598264	     12.96503410	      3.62611302	      2.85405476	      4.08908285	     11.30625082	      8.16806802	      8.51082591	     11.09472489	      3.31024924	      2.21235416	     10.07390989	     14.00030235	      3.03277213	      2.44735443	     15.95764674	      4.03745897	      8.47915188	     11.04799012	      9.11420579	      2.36801015	      7.54665265	      5.66485864	      6.06374662	      2.65853297	      3.17851080	      3.19219382	      8.74335764	      4.08253902	      7.68132753	      7.21490340	      1.51951401	      5.61238445	      0.00000000	      2.91846630	      2.45332891	      3.98673876	      4.09657714	      2.23837258	      1.55846311	      3.65549732	      5.55512448	      4.14674822	     22.64598264	     12.96503410	      3.62611302	      2.85405476	      4.08908285	     10.66509110	      6.59161873	      7.56109030	      8.13022194	     13.94896592	      6.47682238	     31.07974661	     42.35663854	      2.54038119	      2.82087967	      8.45023444	      4.33310984	     12.44448335	      2.00560227	      5.38288457	      1.70760865	     25.00279328	     25.00279328	      8.99866259	      8.99866259	     26.80340777	     26.80340777	     35.14728031	     72.88423248	     10.41117016	     -6.12124611	      0.85631135	     14.67766218	    -35.14728031	    -72.88423248	    -10.41117016	      2.17906919	     -0.95697475	     -0.66448503	     39.66027978	     60.29059862	     15.32795103	     -5.01418292	     -0.96685743	     16.65925398	    -39.66027978	    -60.29059862	    -15.32795103	     -0.82884802	      0.82871135	     -0.99733343	      0.00000000	      0.00000000	      0.00000000	      0.00000000	      0.00000000	      0.00000000	      0.00000000	      0.00000000	      0.00000000	      0.00000000	      0.00000000	      0.00000000	      0.00000000	      0.00000000	      0.00000000	      0.00000000	      0.00000000	      0.00000000	      0.00000000	      0.00000000	      0.00000000	      0.00000000	      0.00000000	      0.00000000	     49.00166352	     41.40408165	      0.00000000	      0.00000000	      0.00000000	      3.06385470	      3.09929756	      0.71916267	      0.00000000	      0.00000000	    106.25000000	    -28.47000000	      0.00000000	      0.03000000	     -0.03000000	      0.00000000
